<svg id="eI54XOPdSRT1" xmlns="http://www.w3.org/2000/svg" xmlns:xlink="http://www.w3.org/1999/xlink" viewBox="0 0 300 300" shape-rendering="geometricPrecision" text-rendering="geometricPrecision" project-id="138cc13e71b2456c8298b02929bb5ddf" export-id="5e7a1e5b3a3b47dbae2fd8a4d3025447" cached="false"><g transform="translate(22 27.330002)"><path d="M32,106.67c-4.442326.012353-8.427523-2.728964-10.004628-6.881933s-.416106-8.848573,2.914628-11.788067l48-42.67c2.283923-2.034807,5.334318-2.986005,8.37-2.61l83,10.07l47-44.56c4.282968-4.064816,11.050184-3.887968,15.115.395s3.887968,11.050184-.395,15.115l-50.67,48c-2.30772,2.175843-5.459836,3.219226-8.61,2.85L83.49,64.5L39.09,104c-1.949788,1.743072-4.474669,2.704593-7.09,2.7v-.03Z" fill="#f857a6" stroke-width="0"/><path d="M226.67,53.34c-2.125834.004325-4.165974-.837637-5.67-2.34L183.68,13.66c-2.289353-2.286806-2.975666-5.727548-1.73889-8.7177s4.153057-4.940801,7.38889-4.9423h37.33c4.418278,0,8,3.581722,8,8v37.33c-.002338,3.238112-1.956455,6.15547-4.95,7.39-.960433.41187-1.994984.622864-3.04.62Z" fill="#f857a6" stroke-width="0"/><path d="M74.67,184v29.33h-64v-29.33c0-3.535336,1.404407-6.925873,3.904266-9.425733s5.890398-3.904267,9.425734-3.904267h37.33c7.363575-.000002,13.33448,5.966427,13.34,13.33ZM160,120v93.33h-64L96,120c0-7.361956,5.968044-13.33,13.33-13.33h37.33c3.537068-.002653,6.930175,1.400582,9.432199,3.900729s3.907802,5.892202,3.907801,9.429271Zm85.33,21.34v72h-64v-72c-.005313-3.537881,1.397067-6.932534,3.897792-9.435134s5.894324-3.907526,9.432208-3.904866h37.34c3.5387-.005326,6.93385,1.398744,9.435153,3.901923s3.902827,5.899382,3.894847,9.438077Z" fill="#605dba" stroke-width="0"/><path d="M248,245.34h-240c-4.418278,0-8-3.581722-8-8s3.581722-8,8-8h240c4.418278,0,8,3.581722,8,8s-3.581722,8-8,8Z" fill="#f857a6" stroke-width="0"/></g></svg>
