<svg id="eORSh2FT6A01" xmlns="http://www.w3.org/2000/svg" xmlns:xlink="http://www.w3.org/1999/xlink" viewBox="0 0 512 454.6" shape-rendering="geometricPrecision" text-rendering="geometricPrecision" project-id="3657ea027fa946bc80403e89b3b8dca2" export-id="70583e7535a2441fb3febfb6e3a44c16" cached="false"><path d="M131.5,126.8h249v-111.6h-365.3v256.3h116.3v-144.7Z" fill="#8fdcc6" stroke-width="0"/><path d="M496.8,194.4c-8.4,0-15.2,6.8-15.2,15.2v158.3h-29.7c-8.4,0-15.2,6.8-15.2,15.2c0,.5,0,1.1.1,1.6l2.8,27.2-75.7-42.1c-2.3-1.3-4.8-1.9-7.4-1.9h-209.8v-225.9h233.8c8.4,0,15.2-6.8,15.2-15.2v-111.6c0-8.4-6.8-15.2-15.2-15.2L15.2,0C6.8,0,0,6.8,0,15.2v256.3c0,8.4,6.8,15.2,15.2,15.2h101v96.4c0,8.4,6.8,15.2,15.2,15.2h221l97.8,54.3c7.3,4.1,16.6,1.4,20.7-5.9c1.5-2.7,2.2-5.9,1.8-9l-4.1-39.5h28.1c8.4,0,15.2-6.8,15.2-15.2v-173.4c.1-8.4-6.7-15.2-15.1-15.2ZM30.4,256.3v-225.9h334.8v81.2h-233.7c-8.4,0-15.2,6.8-15.2,15.2v129.5h-85.9Z" fill="#343f52" stroke-width="0"/><path d="M413.8,223.6h-199.4c-8.4,0-15.2-6.8-15.2-15.2s6.8-15.2,15.2-15.2h199.4c8.4,0,15.2,6.8,15.2,15.2s-6.8,15.2-15.2,15.2Zm0,85.9h-199.4c-8.4,0-15.2-6.8-15.2-15.2s6.8-15.3,15.2-15.3h199.4c8.4,0,15.2,6.8,15.2,15.2s-6.8,15.3-15.2,15.3Z" fill="#343f52" stroke-width="0"/></svg>
