<svg
id="efAw3c8noxG1"
xmlns="http://www.w3.org/2000/svg"
xmlns:xlink="http://www.w3.org/1999/xlink"
viewBox="0 0 185 223"
shape-rendering="geometricPrecision"
text-rendering="geometricPrecision"
project-id="57236cc569c841ca80d7b1a6ea81dc82"
export-id="6e82eaea9356487787b7693f35fa6728"
cached="false"
>
<g transform="matrix(.1 0 0-.1 0 223)">
<path
d="M481,1448C303,1194,157,981,156,976c-1-6,3-11,9-11c5,0,146,196,313,435s317,452,334,473c25,32,26,37,10,37-13,0-113-136-341-462Z"
fill="#f0b0b5"
/>
<path
d="M590,1404C175,812,195,841,206,830c5-5,171,223,384,527c206,295,377,540,378,544c2,5-2,9-10,9-7,0-173-228-368-506Z"
fill="#f0b0b5"
/>
<path
d="M675,1323C456,1011,274,750,269,745c-4-6-4-16,0-23c5-8,156,200,415,569c256,366,404,585,398,591s-157-201-407-559Z"
fill="#f0b0b5"
/>
<path
d="M644,1872c-27-17-515-727-512-745c2-12,97,116,268,359c146,208,267,382,268,386c4,10-9,10-24,0Z"
fill="#f0b0b5"
/>
<path
d="M779,1274C301,591,335,641,347,629c6-6,20,5,38,33c16,24,206,296,423,606c249,356,391,567,385,573s-158-203-414-567Z"
fill="#f0b0b5"
/>
<path
d="M428,1757c-41-36-242-320-264-372-24-59-15-62,20-8c19,29,85,125,148,213c62,89,119,170,127,180c19,28,12,25-31-13Z"
fill="#f0b0b5"
/>
<path
d="M874,1208C650,887,456,611,443,594c-18-25-20-33-10-37c9-3,151,190,438,600c233,333,425,612,427,619c2,8-1,14-6,14-6,0-194-262-418-582Z"
fill="#f0b0b5"
/>
<path
d="M950,1116C718,784,528,508,528,504c0-5,4-10,9-11c9-3,846,1189,851,1213c2,7-1,14-6,14s-199-272-432-604Z"
fill="#f0b0b5"
/>
<path
d="M1045,1052C819,730,633,462,631,457s4-7,13-5c15,3,826,1151,826,1169c0,4-3,10-7,12-5,3-192-259-418-581Z"
fill="#f0b0b5"
/>
<path
d="M1140,987C928,684,753,432,751,427s4-7,12-5c16,3,777,1080,777,1098c0,5-3,11-7,13-5,2-181-243-393-546Z"
fill="#f0b0b5"
/>
<path
d="M1240,929C842,361,875,410,894,410c21,0,698,968,694,993-2,12-123-152-348-474Z"
fill="#f0b0b5"
/>
<path
d="M1608,1258c-3-7-135-197-292-422-157-224-286-410-286-411c0-2,8-1,18,2c14,4,531,729,569,797c6,12,8,28,4,35-7,10-9,10-13-1Z"
fill="#f0b0b5"
/>
<path
d="M1595,1038c-59-90-349-504-368-525-27-30-6-30,27,0c38,34,357,495,367,530c13,44,6,43-26-5Z"
fill="#f0b0b5"
/>
</g>
</svg>
