<svg id="eEjDZmAoTaI1" xmlns="http://www.w3.org/2000/svg" xmlns:xlink="http://www.w3.org/1999/xlink" viewBox="0 0 300 300" shape-rendering="geometricPrecision" text-rendering="geometricPrecision" project-id="59567597b53044fd9afd098ca4181ee4" export-id="99a015e29f17453cb1787661d90d90b4" cached="false"><g transform="translate(21.982429 22)"><path d="M72.11,86.51l-3.52-21L70,64.11l-4.36-4.48c-6.346629-6.420013-8.576924-15.846674-5.78-24.43.11-.32.2-.53.32-.85l-1.4-.21-9-18.88c-1.316505-2.811408-4.140616-4.607365-7.245-4.607365s-5.928495,1.795957-7.245,4.607365l-8.88,19L6.72,37.33c-2.948481.495492-5.3746,2.593758-6.29,5.44-.94424,2.84894-.201362,5.986825,1.92,8.11L16.86,65.71l-3.42,21c-.353616,2.311287.312608,4.662327,1.826203,6.444495s3.725752,2.820247,6.063797,2.845505c1.396065.007127,2.771532-.336739,4-1l17.49-9.81l17.6,9.6c2.699448,1.465613,5.991626,1.299653,8.53-.43c2.497588-1.794389,3.745476-4.861627,3.21-7.89l-.05.04ZM255.57,42.45c-.937261-2.855228-3.422315-4.924812-6.4-5.33l-19.73-3-9-18.88c-1.314159-2.817218-4.141346-4.618063-7.25-4.618063s-5.935841,1.800845-7.25,4.618063l-8.86,19-1.17.21c0,.11.11.21.11.32c2.924651,8.483514.820339,17.891024-5.44,24.32L185.81,64l1.71,1.71-3.41,21c-.353616,2.311287.312608,4.662327,1.826203,6.444495s3.725752,2.820247,6.063797,2.845505c1.396065.007127,2.771532-.336739,4-1l17.49-9.81l17.6,9.6c2.699448,1.465613,5.991626,1.299653,8.53-.43c2.482082-1.806069,3.722802-4.86522,3.2-7.89l-3.52-21l14.51-14.92c2.059188-2.167388,2.755213-5.293736,1.81-8.13l-.05.03Z" fill="#605dba" stroke-width="0"/><path d="M100.18,106.67c-2.341522.002418-4.566559-1.021124-6.088341-2.800705s-2.187523-4.136532-1.821659-6.449295l4.61-28.8L77,48.37c-2.100658-2.137415-2.830521-5.269644-1.891043-8.115463s3.390715-4.927884,6.351043-5.394537l27.09-4.22l12.11-26c1.300102-2.809454,4.104397-4.616667,7.2-4.64c3.092685.000821,5.907877,1.784165,7.23,4.58l12.29,25.9l27.12,4.05c2.966186.437153,5.438937,2.496163,6.406001,5.334147s.266077,5.978467-1.816001,8.135853L159.31,68.38l4.8,28.77c.509057,3.024372-.755707,6.073569-3.255954,7.849724s-5.795844,1.966601-8.484046.490276L128.18,92.24l-24.12,13.42c-1.186577.659548-2.522445,1.003844-3.88,1v.01Z" transform="translate(0 0.623701)" fill="#f857a6" stroke-width="0"/><circle r="21.33" transform="translate(42.67 160)" fill="#605dba" stroke-width="0"/><path d="M71.15,196.27C59.930332,204.721103,53.334465,217.953575,53.34,232v2.67h-45.34c-4.404675-.032669-7.967331-3.595325-8-8v-5.33c-.005308-7.781345,3.082784-15.245658,8.584089-20.748839s12.964565-8.593817,20.745911-8.591161h26.67c5.346152.006146,10.58751,1.483413,15.15,4.27Z" fill="#605dba" stroke-width="0"/><circle r="21.33" transform="translate(213.33 160)" fill="#605dba" stroke-width="0"/><path d="M256,221.33v5.33c-.038024,4.402432-3.597568,7.961976-8,8h-45.33v-2.66c.008672-14.047162-6.587855-27.280958-17.81-35.73c4.558341-2.787682,9.796816-4.265112,15.14-4.27h26.67c7.779613-.002654,15.241355,3.08661,20.742373,8.587627s8.590281,12.96276,8.587627,20.742373Z" fill="#605dba" stroke-width="0"/><circle r="32" transform="translate(128 155.917402)" fill="#f857a6" stroke-width="0"/><path d="M157.33,202.67h-58.67c-16.19394.011031-29.318969,13.13606-29.33,29.33v16c0,4.418278,3.581722,8,8,8h101.33c4.418278,0,8-3.581722,8-8v-16c-.011031-16.19394-13.13606-29.318969-29.33-29.33Z" transform="translate(0 0.623701)" fill="#f857a6" stroke-width="0"/></g></svg>
