<svg id="ebhtsrwVK3T1" xmlns="http://www.w3.org/2000/svg" xmlns:xlink="http://www.w3.org/1999/xlink" viewBox="0 0 512 511.9" shape-rendering="geometricPrecision" text-rendering="geometricPrecision" project-id="305c6ce22e9e4d67994045a4841d5dec" export-id="3ff2429f90fb4e27b74681425e12d7c7" cached="false"><path d="M297.3,429.9c-118.7,0-215-96.2-215-215c0-80.1,44.5-153.5,115.5-190.6c105.1-54.7,235.1-13.8,289.9,91.3c4,8,.8,17.7-7.1,21.7-7.8,3.9-17.3.9-21.5-6.8C412.5,41.2,302,6.4,212.7,52.9c-89.4,46.7-124,156.9-77.4,246.3s156.9,124,246.3,77.4c61.7-32.2,99.8-96.8,98-166.4-.2-8.9,6.9-16.3,15.8-16.4c8.9-.2,16.2,6.8,16.4,15.7c2.9,118.8-91.1,217.5-209.9,220.4-1.4-.1-3,0-4.6,0Z" fill="#343f52" stroke-width="0"/><circle r="111.1" transform="translate(297.082465 214.9)" fill="#fcd49b" stroke-width="0"/><path d="M297.1,342.1c-70.3,0-127.2-57-127.2-127.2s57-127.2,127.2-127.2s127.2,57,127.2,127.2c-.1,70.2-57,127.1-127.2,127.2Zm0-222.2c-52.5,0-95,42.5-95,95s42.5,95,95,95s95-42.5,95-95c-.1-52.5-42.6-95-95-95ZM56.5,511.9C25.3,511.9,0,486.6,0,455.4c0-17.6,8.2-34.2,22.2-44.9L88.3,360c6.4-4.9,15.5-4.3,21.2,1.4l41.1,41.1c5.7,5.7,6.3,14.8,1.4,21.2l-50.5,66.1c-9.9,12.9-24.9,21-41.2,22.1h-3.8ZM96.6,394.2L41.7,436.1c-10.7,8.1-12.9,23.3-4.8,34s23.3,12.9,34,4.8c1.8-1.4,3.4-3,4.8-4.8l42-54.9-21.1-21Z" fill="#343f52" stroke-width="0"/></svg>
