<svg id="eSTRvUMEcP61" xmlns="http://www.w3.org/2000/svg" xmlns:xlink="http://www.w3.org/1999/xlink" viewBox="0 0 512 442.8" shape-rendering="geometricPrecision" text-rendering="geometricPrecision" project-id="e370f69053a948c29c647c8054bca6fc" export-id="8272d1e0b8d4486f9937ffb2d1b7c7bd" cached="false"><path d="M464.2,442.8h-416.5C21.4,442.8,0,421.4,0,395.1L0,47.7C0,21.4,21.4,0,47.7,0h416.5C490.6,0,512,21.4,512,47.7c0,7.6-6.2,13.8-13.8,13.9-7.6,0-13.8-6.2-13.9-13.8c0-11.1-9-20-20.1-20.1h-416.5c-11.1,0-20,9-20.1,20.1v347.3c0,11.1,9,20.1,20.1,20.1h416.5c11.1,0,20.1-9,20.1-20.1v-185.7c0-7.6,6.2-13.8,13.8-13.9c7.6,0,13.8,6.2,13.9,13.8v185.7c0,26.4-21.4,47.8-47.8,47.8Z" fill="#343f52"/><path d="M13.8,47.7v69.9h484.3v-69.9c0-18.7-15.2-33.9-33.9-33.9h-416.5C29,13.8,13.8,29,13.8,47.7Z" fill="#eea1a6" stroke-width="0"/><path d="M498.2,131.5h-484.4C6.2,131.5,0,125.3,0,117.7v-70C0,21.4,21.4,0,47.7,0h416.5C490.6,0,512,21.4,512,47.7v69.9c0,7.7-6.2,13.9-13.8,13.9ZM27.7,103.8h456.6v-56c0-11.1-9-20.1-20.1-20.1h-416.4c-11.1,0-20,9-20.1,20v56.1Z" fill="#343f52" stroke-width="0"/><path d="M294.7,79.6h-26.3c-7.6,0-13.8-6.2-13.8-13.8s6.2-13.8,13.8-13.8h26.3c7.6,0,13.8,6.2,13.8,13.8.1,7.6-6.1,13.8-13.8,13.8Zm73.4,0h-26.3c-7.6,0-13.8-6.2-13.8-13.8s6.2-13.8,13.8-13.8h26.3c7.6,0,13.8,6.2,13.8,13.8s-6.2,13.8-13.8,13.8Zm73.3,0h-26.3c-7.6,0-13.8-6.2-13.8-13.8s6.2-13.8,13.8-13.8h26.3c7.6,0,13.8,6.2,13.8,13.8.1,7.6-6.1,13.8-13.8,13.8Z" fill="#343f52" stroke-width="0"/><path d="M112.8,268.5h286.4v63.6h-286.4v-63.6Z" fill="#eea1a6" stroke-width="0"/><path d="M399.2,345.9h-286.4c-7.6,0-13.8-6.2-13.8-13.8v-63.7c0-7.6,6.2-13.8,13.8-13.8h286.4c7.6,0,13.8,6.2,13.8,13.8v63.7c.1,7.6-6.1,13.8-13.8,13.8ZM126.6,318.3h258.8v-36h-258.8v36Zm230.9-95.5h-203c-7.6.2-14-5.8-14.2-13.5s5.8-14,13.5-14.2h203.8c7.6-.2,14,5.8,14.2,13.5s-5.8,14-13.5,14.2h-.8Z" fill="#343f52"/></svg>
