<svg id="eemSWg6d0DO1" xmlns="http://www.w3.org/2000/svg" xmlns:xlink="http://www.w3.org/1999/xlink" viewBox="0 0 300 300" shape-rendering="geometricPrecision" text-rendering="geometricPrecision" project-id="9af244a88d2f471db4657cc6bec4f0f1" export-id="ae4703af6e884f02b448467272b7eae1" cached="false"><g transform="translate(27.949847 21.992249)"><path d="M178.66,79.37L166.93,91.1c1.948012,3.699711,3.590153,7.552556,4.91,11.52c4.929794-.861416,9.925521-1.289717,14.93-1.28h1.39c-2.213894-7.699536-5.406632-15.083163-9.5-21.97ZM0,128c.040516,27.82697,12.141015,54.270167,33.172422,72.491633s48.928581,26.431975,76.477578,22.508367c-2.388882-4.940404-4.281492-10.105724-5.65-15.42-2.655702.302782-5.327143.446372-8,.43-44.185541,0-80.005-35.819459-80.005-80.005s35.819459-80.005,80.005-80.005c12.896952-.00933,25.600074,3.138984,37,9.17l11.73-11.73C130.003879,36.628846,113.160851,31.983447,96,32c-52.987365.077105-95.922895,43.012635-96,96Z" fill="#f857a6"/><path d="M37.33,128c.055033,32.381344,26.288666,58.619449,58.67,58.68c1.817979-.001946,3.634331-.10879,5.44-.32-.024413-5.4916.498166-10.971979,1.56-16.36-2.308001.433088-4.651728.647372-7,.64-23.56599,0-42.67-19.10401-42.67-42.67s19.10401-42.67,42.67-42.67c2.690996-.04848,5.377764.23363,8,.84l12.91-12.91c-6.656942-2.634678-13.750646-3.991676-20.91-4-32.409572.077145-58.648048,26.360343-58.67,58.77Z" fill="#f857a6"/><path d="M96,106.68c-8.628089.000001-16.406413,5.197971-19.707305,13.169674s-1.474154,17.1469,4.628256,23.24645s15.278464,7.921985,23.248618,4.617355s13.164476-11.08539,13.160431-19.713479c-.038448-11.762649-9.567334-21.287068-21.33-21.32Zm0,26.66c-2.943678,0-5.33-2.386322-5.33-5.33s2.386322-5.33,5.33-5.33s5.33,2.386322,5.33,5.33c.01349,1.417696-.543729,2.781255-1.546237,3.783763s-2.366067,1.559727-3.783763,1.546237Z" fill="#f857a6" stroke="#f857a6" stroke-width="0"/><path d="M96.1,136c-3.235081.002549-6.153278-1.943559-7.394276-4.931147s-.560502-6.428537,1.724276-8.718853L159.76,53c3.145314-2.988231,8.099248-2.924805,11.167027.142973s3.131204,8.021713.142973,11.167027l-69.33,69.33c-1.493401,1.502351-3.521693,2.351069-5.64,2.36Z" fill="#605dba" stroke="#605dba" stroke-width="0"/><path d="M194.77,64h-26.67c-4.418278,0-8-3.581722-8-8v-26.66c.001737-2.122683.838706-4.159428,2.33-5.67L183.76,2.34c2.288093-2.290642,5.731261-2.976321,8.722321-1.736979s4.940227,4.159326,4.937679,7.396979v18.68h18.68c3.237653-.002548,6.157638,1.946619,7.396979,4.937679s.553663,6.434228-1.736979,8.722321L200.43,61.67c-1.503212,1.496243-3.539064,2.334323-5.66,2.33Zm-8,53.34c-28.046322-.004045-53.333271,16.887539-64.068936,42.797801s-4.805698,55.736272,15.024616,75.569447s49.655469,25.767443,75.567279,15.035515s42.807041-36.016441,42.807041-64.062763c-.033074-38.277813-31.052192-69.301406-69.33-69.34Zm29.87,56.11L182,210.78c-2.921897,3.163391-7.823596,3.446267-11.09.64l-18.67-16c-2.190473-1.853877-3.220187-4.738984-2.698515-7.560843s2.514805-5.148139,5.223295-6.096353s5.717375-.373091,7.88522,1.507196l12.84,11l29.44-31.69c3.004429-3.241911,8.068089-3.434429,11.31-.43s3.434429,8.068089.43,11.31l-.03-.01Z" transform="translate(1.400844 0)" fill="#605dba" stroke="#605dba" stroke-width="0"/></g></svg>
